<?xml version="1.0" encoding="iso-8859-1"?>
<!-- Uploaded to: SVG Repo, www.svgrepo.com, Generator: SVG Repo Mixer Tools -->
<svg fill="#000000" version="1.1" id="Layer_1" xmlns="http://www.w3.org/2000/svg" xmlns:xlink="http://www.w3.org/1999/xlink" 
	 viewBox="0 0 512 512" xml:space="preserve">
<g>
	<g>
		<rect x="214.204" y="360.49" width="83.592" height="151.51"/>
	</g>
</g>
<g>
	<g>
		<rect x="214.204" width="83.592" height="151.51"/>
	</g>
</g>
<g>
	<g>
		<rect x="214.204" y="182.857" width="83.592" height="146.286"/>
	</g>
</g>
<g>
	<g>
		<path d="M379.976,135.47c-30.048,30.048-46.289,68.671-48.743,107.991c39.321-2.454,77.943-18.695,107.991-48.743
			c30.048-30.048,46.289-68.671,48.743-107.991C448.647,89.181,410.024,105.422,379.976,135.47z"/>
	</g>
</g>
<g>
	<g>
		<path d="M132.024,313.103c-30.048-30.048-68.671-46.289-107.991-48.743c2.454,39.321,18.695,77.943,48.743,107.991
			c30.048,30.048,68.671,46.289,107.991,48.743C178.313,381.773,162.072,343.151,132.024,313.103z"/>
	</g>
</g>
</svg>