<?xml version="1.0" encoding="UTF-8"?>
<svg id="mdi-printer-3d-nozzle-outline" xmlns="http://www.w3.org/2000/svg" version="1.1" viewBox="0 0 23.8 20">
  <!-- Generator: Adobe Illustrator 29.5.1, SVG Export Plug-In . SVG Version: 2.1.0 Build 141)  -->
  <path d="M13.8,6c.2,1,1.4,1.2,1.7,2.1h0c.4-.9,1.4-1.3,1.6-2.1h-3.3ZM13.1,8.1c-.4-.9-1.5-1.1-1.6-2.1h0s0,0,0,0c.1.8-.7,1.3-1.3,2h2.9Z"/>
  <path d="M22.3,6l-4.8,12.9H1.5L6.2,6h2.8s.2,0,.2,0c.1.9-1,1.3-1.5,2h0l-3.4,8.7h11.7l2.2-5.7h0s0-.1,0-.1v-.3c.1,0,1.1-2.6,1.1-2.6h-1.7c.4-.8,1.4-1.3,1.5-2.1h3Z"/>
  <path d="M14.8,3.6c-.9.6-1.9,1.5-1.7,2.5.2,1,1.6,1.2,1.7,2.3.2,1.2-1.7,1.8-1.7,3.1,0,.6.4,1.4,1.8,2.3-.2,0-.5,0-.9,0-1-.2-1.8-1.3-1.8-2.3,0-1.5,1.9-1.9,1.7-3.1-.1-1-1.5-1.2-1.7-2.3-.2-.9.8-1.8,1.7-2.5h.9Z"/>
  <path d="M18.6.9c-.9.6-1.9,1.5-1.7,2.5.2,1,1.6,1.2,1.7,2.3.2,1.2-1.7,1.8-1.7,3.1,0,.6.4,1.4,1.8,2.3-.2,0-.5,0-.9,0-1-.2-1.8-1.3-1.8-2.3,0-1.5,1.9-1.9,1.7-3.1-.1-1-1.5-1.2-1.7-2.3-.2-.9.8-1.8,1.7-2.5h.9Z"/>
  <path d="M10.8,1.3c-.9.6-1.9,1.5-1.7,2.5.2,1,1.6,1.2,1.7,2.3.2,1.2-1.7,1.7-1.7,3.1,0,.6.4,1.4,1.8,2.3-.2,0-.5,0-.9,0-1-.2-1.8-1.3-1.8-2.3,0-1.5,1.9-1.9,1.7-3.1-.1-1-1.5-1.2-1.7-2.3-.2-.9.8-1.8,1.7-2.5h.9Z"/>
</svg>