<?xml version="1.0" encoding="UTF-8"?>
<svg id="Ebene_1" data-name="Ebene 1" xmlns="http://www.w3.org/2000/svg" width="16.93cm" height="17.89cm" viewBox="0 0 480.02 507.16">
  <path class="cls-1" d="M469.71,461.81l-100.64,42.13c-7.69,1.3-14.75-4.23-14.75-11.54V27.63c0-6.28,5.29-11.45,12-11.71l100.64-5.07c7.12-.28,13.06,5.04,13.06,11.71v427.71c0,5.67-4.34,10.53-10.31,11.54Z"/>
  <path class="cls-1" d="M340.71,18.19h-156.91v11.3c0,5.2-4.21,9.41-9.4,9.41H27.95c-5.19,0-9.4-4.21-9.4-9.41v-11.3h-8.14c-5.75,0-10.41,4.66-10.41,10.41v458.69c0,5.63,4.48,10.24,10.11,10.41l330.31,9.46c5.86.16,10.7-4.54,10.7-10.41V28.6c0-5.75-4.66-10.41-10.41-10.41ZM329.43,453.34c0,5.85-4.67,10.56-10.33,10.41l-273.53-7.39c-5.47-.15-9.82-4.76-9.82-10.41V97.46c0-5.75,4.51-10.41,10.07-10.41h273.54c5.56,0,10.07,4.66,10.07,10.41v355.88Z"/>
  <path class="cls-1" d="M171.49,1.09L30.49,0c-4.48,0-8.11,4.72-8.11,9.21v16.22c0,4.48,3.63,8.12,8.11,8.12h141c4.48,0,8.12-3.64,8.12-8.12V9.21c0-4.49-3.64-8.12-8.12-8.12ZM153.71,25.67c-5.24,0-9.48-4.24-9.48-9.48s4.24-9.48,9.48-9.48,9.48,4.24,9.48,9.48-4.25,9.48-9.48,9.48Z"/>
  <path class="cls-1" d="M329.27,229.13l14.16,20.57c.85,1.24-2.79,2.38-7.61,2.38H29.42c-4.14,0-7.55-.85-7.72-1.94l-3.34-20.57c-.19-1.15,3.32-2.11,7.72-2.11h295.59c3.74,0,6.94.7,7.61,1.66Z"/>
  <rect class="cls-1" x="7.5" y="94.01" width="186.99" height="19.96" transform="translate(-34.14 51.52) rotate(-24.62)"/>
  <rect class="cls-1" x="297.24" y="261.08" width="52.23" height="15.14" rx="7.57" ry="7.57"/>
  <path class="cls-1" d="M239.61,104.69h-35.03c-4.8,0-8.69,3.88-8.69,8.66v64.15c0,4.79,3.89,8.66,8.69,8.66h4.41v3.89c0,2.39,1.95,4.33,4.35,4.33h17.53c2.4,0,4.34-1.94,4.34-4.33v-3.89h4.4c4.82,0,8.7-3.87,8.7-8.66v-64.15c0-4.78-3.88-8.66-8.7-8.66ZM221.14,162.61c-8.13,0-14.73-6.59-14.73-14.73s6.6-14.73,14.73-14.73,14.73,6.59,14.73,14.73-6.59,14.73-14.73,14.73Z"/>
  <rect class="cls-1" x="26.31" y="135.07" width="169.58" height="20.32"/>
  <rect class="cls-1" x="248.31" y="135.07" width="86.83" height="20.32"/>
</svg>