<?xml version="1.0" encoding="UTF-8"?>
<svg id="Ebene_1" xmlns="http://www.w3.org/2000/svg" version="1.1" viewBox="0 0 479.9 507.1">
  <!-- Generator: Adobe Illustrator 29.5.0, SVG Export Plug-In . SVG Version: 2.1.0 Build 137)  -->
  <defs>
    <style>
      .st0 {
        fill: #efefef;
      }
    </style>
  </defs>
  <path class="st0" d="M469.6,461.7l-100.6,42.1c-7.7,1.3-14.7-4.2-14.7-11.5V27.7c0-6.3,5.3-11.4,12-11.7l100.6-5.1c7.1-.3,13.1,5,13.1,11.7v427.6c0,5.7-4.3,10.5-10.3,11.5h0Z"/>
  <path class="st0" d="M340.6,18.2h-156.9v11.3c0,5.2-4.2,9.4-9.4,9.4H27.9c-5.2,0-9.4-4.2-9.4-9.4v-11.3h-8.1C4.7,18.2,0,22.9,0,28.6v458.6C0,492.8,4.5,497.5,10.1,497.6l330.2,9.5c5.9.2,10.7-4.5,10.7-10.4V28.6c0-5.7-4.7-10.4-10.4-10.4ZM329.4,453.3c0,5.8-4.7,10.6-10.3,10.4l-273.5-7.4c-5.5-.1-9.8-4.8-9.8-10.4V97.5c0-5.7,4.5-10.4,10.1-10.4h273.5c5.6,0,10.1,4.7,10.1,10.4v355.8h0Z"/>
  <path class="st0" d="M171.4,1.1L30.5,0c-4.5,0-8.1,4.7-8.1,9.2v16.2c0,4.5,3.6,8.1,8.1,8.1h141c4.5,0,8.1-3.6,8.1-8.1V9.2c0-4.5-3.6-8.1-8.1-8.1ZM153.7,25.7c-5.2,0-9.5-4.2-9.5-9.5s4.2-9.5,9.5-9.5,9.5,4.2,9.5,9.5-4.2,9.5-9.5,9.5Z"/>
  <path class="st0" d="M329.2,229.1l14.2,20.6c.8,1.2-2.8,2.4-7.6,2.4H29.4c-4.1,0-7.5-.8-7.7-1.9l-3.3-20.6c-.2-1.1,3.3-2.1,7.7-2.1h295.5c3.7,0,6.9.7,7.6,1.7h0Z"/>
  <rect class="st0" x="7.5" y="94" width="186.9" height="20" transform="translate(-34.1 51.5) rotate(-24.6)"/>
  <path class="st0" d="M304.7,261.1h37.1c4.2,0,7.6,3.4,7.6,7.6h0c0,4.2-3.4,7.6-7.6,7.6h-37.1c-4.2,0-7.6-3.4-7.6-7.6h0c0-4.2,3.4-7.6,7.6-7.6Z"/>
  <path class="st0" d="M239.6,104.7h-35c-4.8,0-8.7,3.9-8.7,8.7v64.1c0,4.8,3.9,8.7,8.7,8.7h4.4v3.9c0,2.4,1.9,4.3,4.3,4.3h17.5c2.4,0,4.3-1.9,4.3-4.3v-3.9h4.4c4.8,0,8.7-3.9,8.7-8.7v-64.1c0-4.8-3.9-8.7-8.7-8.7ZM221.1,162.6c-8.1,0-14.7-6.6-14.7-14.7s6.6-14.7,14.7-14.7,14.7,6.6,14.7,14.7-6.6,14.7-14.7,14.7Z"/>
  <rect class="st0" x="26.3" y="135.1" width="169.5" height="20.3"/>
  <rect class="st0" x="248.3" y="135.1" width="86.8" height="20.3"/>
</svg>